<svg width="10" height="10" viewBox="0 0 10 10" fill="none" xmlns="http://www.w3.org/2000/svg">
<path d="M8.3046 3.85066C8.26491 3.78508 8.19063 3.74455 8.11014 3.74455H5.18206L5.67296 0.232482C5.6838 0.135731 5.62242 0.0446275 5.5245 0.0121201C5.42658 -0.0203872 5.31762 0.0141713 5.26096 0.09571L1.7001 5.93713C1.6577 6.00171 1.6559 6.0827 1.6954 6.14887C1.73491 6.21504 1.80953 6.25603 1.89048 6.25604H4.77481L4.38578 9.77339C4.37791 9.86977 4.44114 9.95879 4.53912 9.98925C4.63709 10.0197 4.74463 9.9838 4.7999 9.90216L8.30192 4.06136C8.34326 3.9967 8.34428 3.91622 8.3046 3.85066Z" fill="#7290F3"/>
</svg>
