<svg width="10" height="12" viewBox="0 0 10 12" fill="none" xmlns="http://www.w3.org/2000/svg">
<path fill-rule="evenodd" clip-rule="evenodd" d="M1.79999 4.99982V3.9998C1.79999 3.15111 2.13713 2.33718 2.73725 1.73706C3.33736 1.13695 4.1513 0.799805 4.99999 0.799805C5.84868 0.799805 6.66261 1.13695 7.26273 1.73706C7.86285 2.33718 8.19999 3.15111 8.19999 3.9998V4.99982H8.88889C9.50254 4.99982 10 5.56964 10 6.27254V10.7271C10 11.43 9.50254 11.9998 8.88889 11.9998H1.11111C0.497461 11.9998 0 11.43 0 10.7271V6.27254C0 5.56964 0.497461 4.99982 1.11111 4.99982H1.79999ZM3.7272 2.72701C4.06476 2.38945 4.5226 2.1998 4.99999 2.1998C5.47738 2.1998 5.93521 2.38945 6.27278 2.72701C6.61035 3.06458 6.79999 3.52241 6.79999 3.9998V4.99982H3.19999V3.9998C3.19999 3.52241 3.38963 3.06458 3.7272 2.72701Z" fill="#9D85E0"/>
</svg>
