<svg width="28" height="28" viewBox="0 0 28 28" fill="none" xmlns="http://www.w3.org/2000/svg">
<g>
<rect x="4" y="4" width="20" height="20" rx="10" fill="#D97736"/>
<path transform="translate(0 2)" d="M18.8479 8.72234C19.0886 8.38528 19.0105 7.91687 18.6735 7.67612C18.3364 7.43537 17.868 7.51344 17.6272 7.8505L18.8479 8.72234ZM13.2375 15.2866L12.7072 15.817C12.8631 15.9729 13.0797 16.0523 13.2994 16.0341C13.5191 16.0159 13.7197 15.9019 13.8479 15.7225L13.2375 15.2866ZM10.7678 11.7564C10.4749 11.4635 10 11.4635 9.70713 11.7564C9.41425 12.0493 9.41426 12.5242 9.70717 12.8171L10.7678 11.7564ZM17.6272 7.8505L12.6272 14.8507L13.8479 15.7225L18.8479 8.72234L17.6272 7.8505ZM13.7679 14.7563L10.7678 11.7564L9.70717 12.8171L12.7072 15.817L13.7679 14.7563Z" fill="white"/>
</g>
</svg>
