<svg width="12" height="12" viewBox="0 0 12 12" fill="none" xmlns="http://www.w3.org/2000/svg">
<path fill-rule="evenodd" clip-rule="evenodd" d="M0.50483 0.504342C0.778197 0.230975 1.22141 0.230975 1.49478 0.504342L11.4948 10.5044C11.7682 10.7778 11.7682 11.221 11.4948 11.4943C11.2215 11.7677 10.7783 11.7677 10.5049 11.4943L0.50483 1.49429C0.231463 1.22092 0.231463 0.777709 0.50483 0.504342Z" fill="white"/>
<path fill-rule="evenodd" clip-rule="evenodd" d="M11.4942 0.504342C11.2208 0.230975 10.7776 0.230975 10.5042 0.504342L0.504189 10.5044C0.230823 10.7778 0.230823 11.221 0.504189 11.4943C0.777556 11.7677 1.22077 11.7677 1.49414 11.4943L11.4942 1.49429C11.7676 1.22092 11.7676 0.777709 11.4942 0.504342Z" fill="white"/>
</svg>
