<svg width="14" height="14" viewBox="0 0 14 14" fill="none" xmlns="http://www.w3.org/2000/svg">
<path fill-rule="evenodd" clip-rule="evenodd" d="M1.50581 1.50483C1.77917 1.23146 2.22239 1.23146 2.49576 1.50483L12.4958 11.5049C12.7692 11.7783 12.7692 12.2215 12.4958 12.4948C12.2224 12.7682 11.7792 12.7682 11.5059 12.4948L1.50581 2.49478C1.23244 2.22141 1.23244 1.7782 1.50581 1.50483Z" fill="#706F6F"/>
<path fill-rule="evenodd" clip-rule="evenodd" d="M12.4952 1.50483C12.2218 1.23146 11.7786 1.23146 11.5052 1.50483L1.50517 11.5049C1.2318 11.7783 1.2318 12.2215 1.50517 12.4948C1.77853 12.7682 2.22175 12.7682 2.49512 12.4948L12.4952 2.49478C12.7685 2.22141 12.7685 1.7782 12.4952 1.50483Z" fill="#706F6F"/>
</svg>
