<svg width="10" height="10" viewBox="0 0 10 10" fill="none" xmlns="http://www.w3.org/2000/svg">
<path fill-rule="evenodd" clip-rule="evenodd" d="M5 10C7.76142 10 10 7.76142 10 5C10 2.23858 7.76142 0 5 0C2.23858 0 0 2.23858 0 5C0 7.76142 2.23858 10 5 10Z" fill="#B0AFAE"/>
<path fill-rule="evenodd" clip-rule="evenodd" d="M5.38852 5.9119V6.3199H4.52452V5.8079C4.52452 5.3919 4.77252 5.1359 5.07652 4.9199C5.68452 4.4959 5.85252 4.2879 5.85252 3.9359C5.85252 3.4239 5.50852 3.0719 4.92452 3.0719C4.37252 3.0719 4.10852 3.5439 4.10852 4.1119C3.81252 4.0639 3.51652 4.0079 3.22852 3.9519C3.27652 2.9279 3.86052 2.2959 4.95652 2.2959C6.09252 2.2959 6.77252 2.9199 6.77252 3.9359C6.77252 4.5759 6.42052 4.9039 6.00452 5.1919L5.73252 5.3839C5.57252 5.4959 5.40452 5.6799 5.38852 5.9119ZM5.48452 6.9519V7.9999H4.42852V6.9519H5.48452Z" fill="white"/>
</svg>
