<svg width="16" height="16" viewBox="0 0 16 16" fill="none" xmlns="http://www.w3.org/2000/svg">
<path d="M3.36132 10.1114C3.36132 11.0365 2.60568 11.7922 1.68066 11.7922C0.755646 11.7922 0 11.0365 0 10.1114C0 9.18635 0.755646 8.43066 1.68066 8.43066H3.36132V10.1114Z" fill="#E01E5A"/>
<path d="M4.20752 10.1104C4.20752 9.18537 4.96317 8.42969 5.88818 8.42969C6.8132 8.42969 7.56884 9.18537 7.56884 10.1104V14.3188C7.56884 15.2439 6.8132 15.9996 5.88818 15.9996C4.96317 15.9996 4.20752 15.2439 4.20752 14.3188V10.1104Z" fill="#E01E5A"/>
<path d="M5.88818 3.36149C4.96317 3.36149 4.20752 2.60581 4.20752 1.68075C4.20752 0.755684 4.96317 0 5.88818 0C6.8132 0 7.56884 0.755684 7.56884 1.68075V3.36149H5.88818Z" fill="#36C5F0"/>
<path d="M5.88883 4.20898C6.81385 4.20898 7.56949 4.96467 7.56949 5.88973C7.56949 6.81479 6.81385 7.57047 5.88883 7.57047H1.68066C0.755646 7.57047 0 6.81479 0 5.88973C0 4.96467 0.755646 4.20898 1.68066 4.20898H5.88883Z" fill="#36C5F0"/>
<path d="M12.6387 5.88973C12.6387 4.96467 13.3943 4.20898 14.3193 4.20898C15.2443 4.20898 16 4.96467 16 5.88973C16 6.81479 15.2443 7.57047 14.3193 7.57047H12.6387V5.88973Z" fill="#2EB67D"/>
<path d="M11.7905 5.88912C11.7905 6.81418 11.0349 7.56987 10.1099 7.56987C9.18484 7.56987 8.4292 6.81418 8.4292 5.88912V1.68075C8.4292 0.755684 9.18484 0 10.1099 0C11.0349 0 11.7905 0.755684 11.7905 1.68075V5.88912Z" fill="#2EB67D"/>
<path d="M10.1099 12.6387C11.0349 12.6387 11.7905 13.3944 11.7905 14.3194C11.7905 15.2445 11.0349 16.0002 10.1099 16.0002C9.18484 16.0002 8.4292 15.2445 8.4292 14.3194V12.6387H10.1099Z" fill="#ECB22E"/>
<path d="M10.1103 11.7912C9.18533 11.7912 8.42969 11.0355 8.42969 10.1104C8.42969 9.18537 9.18533 8.42969 10.1103 8.42969H14.3185C15.2435 8.42969 15.9992 9.18537 15.9992 10.1104C15.9992 11.0355 15.2435 11.7912 14.3185 11.7912H10.1103Z" fill="#ECB22E"/>
</svg>
